<?xml version="1.0" standalone="no"?>
<!DOCTYPE svg PUBLIC "-//W3C//DTD SVG 20010904//EN"
 "http://www.w3.org/TR/2001/REC-SVG-20010904/DTD/svg10.dtd">
<svg version="1.0" xmlns="http://www.w3.org/2000/svg"
 width="41.000000pt" height="41.000000pt" viewBox="0 0 41.000000 41.000000"
 preserveAspectRatio="xMidYMid meet">

<g transform="translate(0.000000,41.000000) scale(0.100000,-0.100000)"
fill="#000000" stroke="none">
<path d="M26 389 l-26 -20 0 -165 c0 -217 -13 -204 204 -204 l165 0 20 26 c19
24 21 40 21 181 0 150 -1 155 -25 178 -23 24 -28 25 -178 25 -141 0 -157 -2
-181 -21z m342 -21 c18 -18 17 -312 -2 -327 -9 -8 -64 -11 -172 -9 l-159 3 -3
159 c-2 108 1 163 9 172 15 19 309 20 327 2z"/>
<path d="M115 300 c-4 -7 -3 -16 3 -22 14 -14 45 -2 40 15 -6 16 -34 21 -43 7z"/>
<path d="M114 237 c-3 -8 -4 -39 -2 -68 3 -46 6 -54 23 -54 18 0 20 7 20 65 0
54 -3 65 -18 68 -9 2 -20 -3 -23 -11z"/>
<path d="M182 181 c2 -53 6 -66 21 -69 14 -3 17 4 17 35 0 43 21 80 38 69 7
-4 12 -29 12 -57 0 -42 3 -49 20 -49 18 0 20 7 20 59 0 35 -5 63 -12 69 -7 5
-37 10 -66 10 l-53 0 3 -67z"/>
</g>
</svg>
